# xmcd
#
# Track frame offsets:
#	150
#	15443
#	24945
#	37960
#	52592
#	69737
#	87387
#	103724
#	122172
#	137605
#
# Disc length: 1952 seconds
#
# Revision: 0
# Processed by: cddbd v1.5.2PL0 Copyright (c) Steve Scherf et al.
# Submitted via: EasyCDDAExtractor 10.0.2.1
#
DISCID=74079e0a
DTITLE=Carla Jo Carr - God Is Still The One
DYEAR=1900
DGENRE=Gospel
TTITLE0=God Is Still The One
TTITLE1=Heaven Bound
TTITLE2=I'll Take Jesus
TTITLE3=Homecoming day
TTITLE4=Go Back To Calvary
TTITLE5=I Believe In Jesus Christ
TTITLE6=I'd Rather Have Jesus
TTITLE7=Let's Sail For Glory
TTITLE8=No Time For Jesus
TTITLE9=I Wouldn't Take Nothing For My Journey Now
EXTD=
EXTT0=
EXTT1=
EXTT2=
EXTT3=
EXTT4=
EXTT5=
EXTT6=
EXTT7=
EXTT8=
EXTT9=
PLAYORDER=
